<svg xmlns="http://www.w3.org/2000/svg" width="71.918" height="82.235" viewBox="0 0 71.918 82.235">
  <g id="Customer_Quotes_Orders-big-grey" data-name="Customer Quotes &amp; Orders-big-grey" transform="translate(2.041 2)">
    <path id="Path_404" data-name="Path 404" d="M-2514.566,103.384V116.96a10.913,10.913,0,0,1-10.881,10.881h0a10.913,10.913,0,0,1-10.881-10.881V106.605h-46.058s-1.8,21.646,14.9,21.3h42.18" transform="translate(2582.443 -49.673)" fill="none" stroke="#4e4e4e" stroke-miterlimit="10" stroke-width="4"/>
    <path id="Path_405" data-name="Path 405" d="M-2434-388.158V-422.7a6.852,6.852,0,0,1,6.832-6.832h39.251a6.852,6.852,0,0,1,6.832,6.832v56.427" transform="translate(2448.959 429.529)" fill="none" stroke="#4e4e4e" stroke-linecap="round" stroke-miterlimit="10" stroke-width="4"/>
    <line id="Line_16" data-name="Line 16" x2="31.312" transform="translate(25.549 37.5)" fill="none" stroke="#4e4e4e" stroke-miterlimit="10" stroke-width="3"/>
    <line id="Line_17" data-name="Line 17" x2="21.659" transform="translate(30.548 46.629)" fill="none" stroke="#4e4e4e" stroke-miterlimit="10" stroke-width="3"/>
    <g id="Group_581" data-name="Group 581" transform="translate(2145.909 116.634)">
      <path id="Rectangle_277" data-name="Rectangle 277" d="M5.068,0h8.072a5.068,5.068,0,0,1,5.068,5.068V7.955A1.185,1.185,0,0,1,17.022,9.14H1.185A1.185,1.185,0,0,1,0,7.955V5.068A5.068,5.068,0,0,1,5.068,0Z" transform="translate(-2113.691 -96.909)" fill="none" stroke="#4e4e4e" stroke-miterlimit="10" stroke-width="3"/>
      <circle id="Ellipse_18" data-name="Ellipse 18" cx="5.725" cy="5.725" r="5.725" transform="translate(-2110.29 -108.358)" fill="none" stroke="#4e4e4e" stroke-miterlimit="10" stroke-width="3"/>
    </g>
  </g>
</svg>
