<svg xmlns="http://www.w3.org/2000/svg" width="66.94" height="84.168" viewBox="0 0 66.94 84.168">
  <g id="Customer_Management-big-grey" data-name="Customer Management-big-grey" transform="translate(1.987)">
    <path id="Path_202" data-name="Path 202" d="M-248.327,385.179v-.118c-7.351,0-14.7.02-22.052-.007-4.428-.017-7.608-2.139-8.767-5.8a7.076,7.076,0,0,1-.375-2.061c-.028-6.666-.224-3.978.03-10.634,0-11.735,9.757-17.216,17.87-19.7" transform="translate(279.621 -303.011)" fill="none" stroke="#4e4e4e" stroke-linecap="round" stroke-miterlimit="10" stroke-width="4"/>
    <path id="Path_203" data-name="Path 203" d="M-235.33,385.276v-.118c7.351,0,14.7.02,22.053-.007,4.428-.017,7.607-2.139,8.767-5.8a7.055,7.055,0,0,0,.375-2.061c.028-6.667.224-3.978-.029-10.634,0-11.4-9.211-16.9-17.175-19.483" transform="translate(267.002 -303.107)" fill="none" stroke="#4e4e4e" stroke-linecap="round" stroke-miterlimit="10" stroke-width="4"/>
    <g id="Path_204" data-name="Path 204" transform="translate(274.979 -274)" fill="none" stroke-linecap="round" stroke-miterlimit="10">
      <path d="M-242.348,274c11.621.007,20.975,9.1,20.959,20.379-.015,11.228-9.5,20.384-21.05,20.325s-20.891-9.167-20.9-20.357C-263.341,283.079-253.968,273.993-242.348,274Z" stroke="none"/>
      <path d="M -242.3611907958984 278.0000305175781 C -246.9328155517578 278.0000305175781 -251.2154846191406 279.7121887207031 -254.4203338623047 282.8211059570313 C -257.5918884277344 285.897705078125 -259.3372802734375 289.9903869628906 -259.3349914550781 294.3455505371094 C -259.3330688476563 298.6697998046875 -257.5883483886719 302.7498779296875 -254.4222412109375 305.834228515625 C -251.2227478027344 308.9510498046875 -246.9596099853516 310.6804809570313 -242.4177703857422 310.7039489746094 L -242.3260803222656 310.7041625976563 C -240.0411529541016 310.7041625976563 -237.8218231201172 310.2667846679688 -235.7297821044922 309.4041748046875 C -233.7112884521484 308.5718994140625 -231.896484375 307.3820190429688 -230.3358001708984 305.86767578125 C -227.1512756347656 302.7776489257813 -225.3943176269531 298.69580078125 -225.3885803222656 294.3736877441406 C -225.3824462890625 290.0111999511719 -227.1241455078125 285.9118957519531 -230.2927856445313 282.8309936523438 C -233.4939575195313 279.7184143066406 -237.7760314941406 278.0027465820313 -242.3477783203125 278.0000305175781 L -242.3611907958984 278.0000305175781 M -242.3612060546875 274.0000305175781 C -242.3562316894531 274.0000305175781 -242.3527526855469 274.0000305175781 -242.3477783203125 274.0000305175781 C -230.7266540527344 274.0069580078125 -221.3727416992188 283.1016540527344 -221.3885803222656 294.3793029785156 C -221.4034423828125 305.5703125 -230.8257904052734 314.7041625976563 -242.3260650634766 314.7041625976563 C -242.3641052246094 314.7041625976563 -242.4007110595703 314.7040710449219 -242.4387817382813 314.7038879394531 C -253.9811859130859 314.6443176269531 -263.3300170898438 305.5370178222656 -263.3349914550781 294.3473205566406 C -263.3408813476563 283.0842590332031 -253.9749603271484 274.0000305175781 -242.3612060546875 274.0000305175781 Z" stroke="none" fill="#4e4e4e"/>
    </g>
    <path id="Path_205" data-name="Path 205" d="M-253.627,346.606l14,15.976,12.444-14.91" transform="translate(272.215 -302.935)" fill="none" stroke="#4e4e4e" stroke-linecap="round" stroke-miterlimit="10" stroke-width="4"/>
  </g>
</svg>
