<svg xmlns="http://www.w3.org/2000/svg" width="57.882" height="64.501" viewBox="0 0 57.882 64.501">
  <g id="Inventory-big-green" transform="translate(1.863 1.25)">
    <path id="Union_27" data-name="Union 27" d="M24.437,59.865c-6.949-2.2-11.359-.2-13.064.883a.33.33,0,0,1-.5-.381c2.173-5.341,10.9-5.046,12.717-4.926a.333.333,0,0,0,.356-.3L25.973,33.67a.252.252,0,0,0,0-.077c-.43-2.717-2.877-5.378-4.551-6.917a.325.325,0,0,1,.409-.5,35.166,35.166,0,0,1,5.206,4.071.337.337,0,0,0,.565-.192l1.129-8.934a.336.336,0,0,1,.663,0l1.138,9.018a.337.337,0,0,0,.537.213l4.192-3.132c.3-.229.707.137.482.431a18.935,18.935,0,0,0-3.076,5.938.469.469,0,0,0-.009.093L34.182,57.22a.321.321,0,0,0,.209.278A17.241,17.241,0,0,0,46.2,57.276a.325.325,0,0,1,.415.452C44.769,60.818,41,62,36.546,62A41.627,41.627,0,0,1,24.437,59.865ZM5.488,46.186c.141-1.46.895-6.773,4.658-10.465S19.472,31.162,21,30.982a.326.326,0,0,1,.372.347c-.138,1.459-.892,6.772-4.657,10.462S7.39,46.356,5.863,46.53l-.041,0A.325.325,0,0,1,5.488,46.186Zm47.939-.432c-1.527-.173-7.085-1.05-10.851-4.739s-4.519-9-4.658-10.462a.327.327,0,0,1,.372-.347c1.528.179,7.086,1.05,10.853,4.739S53.661,43.951,53.8,45.41a.326.326,0,0,1-.333.346ZM8.564,27.294A12.374,12.374,0,0,1,2.2,22.825a13.007,13.007,0,0,1,7.847-.94,12.2,12.2,0,0,1,6.169,4.2.26.26,0,0,1-.109.4,14.062,14.062,0,0,1-5.192,1.081A9.793,9.793,0,0,1,8.564,27.294Zm33.949-.848a.258.258,0,0,1-.109-.4,12.15,12.15,0,0,1,6.14-4.169,12.983,12.983,0,0,1,7.809.932,12.311,12.311,0,0,1-6.334,4.432,9.779,9.779,0,0,1-2.338.272A14.045,14.045,0,0,1,42.513,26.447Zm-9.338-4.084c.132-1.46.869-6.775,4.625-10.477S47.112,7.3,48.64,7.117a.321.321,0,0,1,.368.344c-.131,1.456-.869,6.775-4.625,10.474S35.071,22.523,33.547,22.7l-.042,0A.32.32,0,0,1,33.175,22.362Zm-9.249.34c-1.527-.179-7.084-1.066-10.836-4.767S8.6,8.917,8.463,7.461a.326.326,0,0,1,.373-.344c1.527.18,7.083,1.066,10.839,4.768S24.164,20.9,24.3,22.362a.321.321,0,0,1-.331.343Zm4.56-7.094a13.025,13.025,0,0,1-3.067-7.765C25.447,4.156,27.8,1.065,28.6.118a.344.344,0,0,1,.522,0A13,13,0,0,1,32.18,7.888c-.022,3.686-2.372,6.778-3.174,7.725a.341.341,0,0,1-.519,0Z" transform="translate(-2.2)" fill="none" stroke="#629c44" stroke-miterlimit="10" stroke-width="2.5"/>
  </g>
</svg>
