<svg xmlns="http://www.w3.org/2000/svg" width="74.999" height="83.202" viewBox="0 0 74.999 83.202">
  <g id="Inventory-big-grey" transform="translate(2.388 1.6)">
    <path id="Union_27" data-name="Union 27" d="M31,77.245c-9-2.842-14.711-.252-16.92,1.139a.427.427,0,0,1-.644-.491C16.249,71,27.552,71.382,29.9,71.537a.432.432,0,0,0,.463-.383l2.623-27.709a.292.292,0,0,0,0-.1c-.557-3.506-3.725-6.939-5.894-8.926-.37-.339.087-.9.529-.647a45.441,45.441,0,0,1,6.743,5.252.437.437,0,0,0,.732-.248l1.461-11.529a.435.435,0,0,1,.86,0l1.473,11.637a.437.437,0,0,0,.7.275l5.43-4.041c.393-.3.915.175.625.555a24.4,24.4,0,0,0-3.984,7.663.606.606,0,0,0-.012.12l1.978,30.375a.418.418,0,0,0,.271.36c6.5,2.462,12.839.632,15.3-.288a.421.421,0,0,1,.537.584C57.33,78.474,52.447,80,46.681,80A54.074,54.074,0,0,1,31,77.245ZM6.458,59.594c.183-1.883,1.158-8.738,6.034-13.5s12.078-5.884,14.056-6.116a.422.422,0,0,1,.482.447c-.179,1.883-1.156,8.738-6.032,13.5S8.922,59.814,6.944,60.038a.466.466,0,0,1-.055,0A.42.42,0,0,1,6.458,59.594Zm62.085-.556c-1.977-.224-9.175-1.355-14.053-6.116s-5.853-11.615-6.031-13.5a.422.422,0,0,1,.481-.448c1.978.232,9.176,1.355,14.056,6.116s5.851,11.62,6.034,13.5a.422.422,0,0,1-.433.447A.469.469,0,0,1,68.543,59.038ZM54.41,34.178a.336.336,0,0,1-.141-.515,15.807,15.807,0,0,1,7.989-5.423c5.083-1.256,10.163,1.212,10.163,1.212s-3.164,4.508-8.243,5.767a12.729,12.729,0,0,1-3.042.354A18.282,18.282,0,0,1,54.41,34.178ZM10.443,35.219C5.363,33.96,2.2,29.452,2.2,29.452s5.08-2.469,10.162-1.212a15.807,15.807,0,0,1,7.99,5.423.336.336,0,0,1-.141.515,18.282,18.282,0,0,1-6.726,1.4A12.729,12.729,0,0,1,10.443,35.219Zm31.873-6.365c.171-1.883,1.126-8.742,5.99-13.519s12.06-5.919,14.037-6.151a.416.416,0,0,1,.478.444c-.171,1.878-1.127,8.742-5.99,13.514S44.771,29.062,42.8,29.294a.462.462,0,0,1-.053,0A.415.415,0,0,1,42.315,28.854Zm-11.978.44c-1.978-.232-9.175-1.375-14.034-6.152S10.484,11.506,10.311,9.627a.42.42,0,0,1,.481-.444c1.978.232,9.174,1.375,14.038,6.151s5.815,11.636,5.99,13.519a.416.416,0,0,1-.429.443A.471.471,0,0,1,30.337,29.294Zm5.9-9.154c-1.022-1.235-4-5.264-3.972-10.019S35.351,1.373,36.386.152a.445.445,0,0,1,.676.006c1.02,1.233,4,5.262,3.965,10.019s-3.073,8.746-4.111,9.967a.443.443,0,0,1-.673,0Z" transform="translate(-2.2 0)" fill="none" stroke="#4e4e4e" stroke-miterlimit="10" stroke-width="3.2"/>
  </g>
</svg>
