<svg xmlns="http://www.w3.org/2000/svg" width="24.726" height="26.4" viewBox="0 0 24.726 26.4">
  <g id="Inventory-small-grey" transform="translate(1.199 1.2)">
    <g id="Union_27" data-name="Union 27" transform="translate(-0.435 -0.794)" fill="none" stroke-linecap="square" stroke-miterlimit="10">
      <path d="M9.764,23.956a6.126,6.126,0,0,0-5.189.347.131.131,0,0,1-.2-.15c.863-2.1,4.33-1.98,5.051-1.932A.132.132,0,0,0,9.57,22.1l.8-8.424a.077.077,0,0,0,0-.03,5.429,5.429,0,0,0-1.808-2.714c-.114-.1.027-.275.162-.2a13.926,13.926,0,0,1,2.068,1.6.134.134,0,0,0,.224-.075l.448-3.5a.134.134,0,0,1,.264,0l.452,3.537a.135.135,0,0,0,.214.084l1.665-1.228c.121-.09.281.053.191.169a7.406,7.406,0,0,0-1.222,2.329.2.2,0,0,0,0,.036l.607,9.234a.128.128,0,0,0,.083.109,6.927,6.927,0,0,0,4.692-.088.129.129,0,0,1,.165.178c-.734,1.212-2.232,1.676-4,1.676A16.72,16.72,0,0,1,9.764,23.956Zm9.668-6.376a4.9,4.9,0,0,1-2.694-1.162,4.31,4.31,0,0,1-1.155-2.564.081.081,0,0,1,.091-.085,4.91,4.91,0,0,1,2.694,1.162A4.319,4.319,0,0,1,19.525,17.5a.081.081,0,0,1-.083.085ZM3.611,17.32A3.906,3.906,0,0,1,4.656,15a4.441,4.441,0,0,1,2.433-1.049.073.073,0,0,1,.083.077,3.9,3.9,0,0,1-1.044,2.316A4.429,4.429,0,0,1,3.7,17.4H3.686A.073.073,0,0,1,3.611,17.32Zm-.705-6.04A4.842,4.842,0,0,1,.457,9.631.1.1,0,0,1,.5,9.475a5.133,5.133,0,0,1,2.993-.316,4.833,4.833,0,0,1,2.449,1.649.1.1,0,0,1-.043.155,5.617,5.617,0,0,1-2.059.425A3.926,3.926,0,0,1,2.906,11.28Zm13.732-.316a.1.1,0,0,1-.043-.157,4.851,4.851,0,0,1,2.451-1.649,5.223,5.223,0,0,1,3.117.369,4.909,4.909,0,0,1-2.528,1.753,3.937,3.937,0,0,1-.934.108A5.646,5.646,0,0,1,16.638,10.964ZM13.99,8.543a5.24,5.24,0,0,1,1.4-3.124A5.959,5.959,0,0,1,18.658,4a.1.1,0,0,1,.111.1,5.237,5.237,0,0,1-1.4,3.122A5.957,5.957,0,0,1,14.1,8.644h-.012A.1.1,0,0,1,13.99,8.543Zm-5.148.1A5.952,5.952,0,0,1,5.571,7.223,5.241,5.241,0,0,1,4.174,4.1.1.1,0,0,1,4.286,4,5.959,5.959,0,0,1,7.558,5.419a5.25,5.25,0,0,1,1.4,3.124.1.1,0,0,1-.1.1Zm2.544-2.366A4.547,4.547,0,0,1,10.294,3.55,4.563,4.563,0,0,1,11.425.835a.123.123,0,0,1,.186,0A4.539,4.539,0,0,1,12.7,3.565,4.544,4.544,0,0,1,11.57,6.279a.122.122,0,0,1-.185,0Z" stroke="none"/>
      <path d="M 14.57449150085449 24.79390525817871 C 16.3427906036377 24.79390525817871 17.8404426574707 24.32942962646484 18.57440757751465 23.11749458312988 C 18.62775611877441 23.03083038330078 18.55367660522461 22.93103790283203 18.45838928222656 22.93103790283203 C 18.44256019592285 22.93103790283203 18.4261302947998 22.93379592895508 18.40961837768555 22.9398250579834 C 17.93455505371094 23.11623191833496 16.98687744140625 23.40250205993652 15.85129070281982 23.40250205993652 C 15.18559455871582 23.40250205993652 14.45515823364258 23.30404663085938 13.7179479598999 23.02738380432129 C 13.67054748535156 23.0091438293457 13.63758754730225 22.96536445617676 13.63499736785889 22.91793441772461 L 13.02844715118408 13.68364429473877 C 13.02844715118408 13.67160415649414 13.02955722808838 13.65919399261475 13.03178787231445 13.6471643447876 C 13.07473754882813 13.49648475646973 13.3824577331543 12.45858478546143 14.25376796722412 11.31779479980469 C 14.32337188720703 11.2275915145874 14.24137592315674 11.12052345275879 14.14463901519775 11.12052345275879 C 14.11734867095947 11.12052345275879 14.08887958526611 11.12904739379883 14.06231784820557 11.14887428283691 L 12.39709758758545 12.37722396850586 C 12.37205219268799 12.39542388916016 12.34348201751709 12.40374660491943 12.31552219390869 12.40374660491943 C 12.25211906433105 12.40374660491943 12.19190788269043 12.36091423034668 12.18342781066895 12.29331398010254 L 11.73166751861572 8.756034851074219 C 11.72203731536865 8.681794166564941 11.66075229644775 8.644674301147461 11.59956169128418 8.644674301147461 C 11.53837013244629 8.644674301147461 11.47727298736572 8.681794166564941 11.468017578125 8.756034851074219 L 11.01995754241943 12.26084423065186 C 11.01116466522217 12.32967376708984 10.95081329345703 12.37214660644531 10.88800048828125 12.37214660644531 C 10.85559368133545 12.37214660644531 10.82252597808838 12.36083507537842 10.79555797576904 12.33600425720215 C 10.40970802307129 11.9835844039917 9.515068054199219 11.1974048614502 8.727437973022461 10.73918437957764 C 8.703607559204102 10.72552108764648 8.679647445678711 10.71955490112305 8.656926155090332 10.71955490112305 C 8.550433158874512 10.71955490112305 8.4715576171875 10.85080337524414 8.565247535705566 10.93619441986084 C 9.230307579040527 11.53996467590332 10.20233726501465 12.58371448516846 10.37304782867432 13.64971446990967 C 10.37563800811768 13.66065406799316 10.37563800811768 13.67014408111572 10.37415790557861 13.67999458312988 L 9.569867134094238 22.10402488708496 C 9.564164161682129 22.17045402526855 9.505880355834961 22.22062301635742 9.436056137084961 22.22062301635742 C 9.433406829833984 22.22062301635742 9.430727958679199 22.22055053710938 9.428047180175781 22.22040367126465 C 9.300280570983887 22.21200370788574 9.086445808410645 22.20147514343262 8.816123962402344 22.20147514343262 C 7.560273170471191 22.20147514343262 5.08678674697876 22.42879676818848 4.37681770324707 24.15285491943359 C 4.340421199798584 24.24106788635254 4.414864540100098 24.3239574432373 4.501047611236572 24.32394981384277 C 4.525351524353027 24.32394599914551 4.550601482391357 24.31735229492188 4.57454776763916 24.30242347717285 C 5.030545711517334 24.01749992370605 5.973450183868408 23.56757736206055 7.383461475372314 23.56757736206055 C 8.067695617675781 23.56757736206055 8.862092018127441 23.67359352111816 9.763907432556152 23.95584487915039 C 11.36041736602783 24.45596504211426 13.06594753265381 24.79388427734375 14.57437801361084 24.79390525817871 C 14.57448577880859 24.79390525817871 14.57438373565674 24.79390525817871 14.57449150085449 24.79390525817871 M 19.4422779083252 17.58082389831543 C 19.48981666564941 17.58082389831543 19.52911758422852 17.54208374023438 19.52495765686035 17.49600410461426 C 19.48977851867676 17.13847351074219 19.30351829528809 15.83643436431885 18.36851692199707 14.93132400512695 C 17.43462753295898 14.02729415893555 16.05489730834961 13.81388473510742 15.67496776580811 13.76974391937256 C 15.67168617248535 13.76936912536621 15.66843414306641 13.76918697357178 15.66521072387695 13.76918697357178 C 15.6182336807251 13.76918697357178 15.57865047454834 13.80799674987793 15.5835075378418 13.85510444641113 C 15.61794757843018 14.21263408660889 15.80457782745361 15.51466464996338 16.73883819580078 16.4186840057373 C 17.67383766174316 17.32271385192871 19.05282783508301 17.53759384155273 19.43238830566406 17.58027458190918 C 19.43570709228516 17.58064460754395 19.43900680541992 17.58082389831543 19.4422779083252 17.58082389831543 M 3.686187505722046 17.39657402038574 C 3.689247608184814 17.39657402038574 3.692337512969971 17.39639472961426 3.695467710494995 17.39604377746582 C 4.03798770904541 17.35736465454102 5.283677577972412 17.16328430175781 6.127947807312012 16.34681510925293 C 6.97185754776001 15.52998447418213 7.141087532043457 14.35381412506104 7.172187805175781 14.03095436096191 C 7.175999164581299 13.98869132995605 7.141023635864258 13.9534387588501 7.09805965423584 13.9534387588501 C 7.095033645629883 13.9534387588501 7.091961860656738 13.95361423492432 7.088867664337158 13.95397472381592 C 6.746347427368164 13.99410438537598 5.500297546386719 14.18672466278076 4.656017780303955 15.00319480895996 C 3.812107563018799 15.8207540512085 3.643257617950439 16.99692344665527 3.611407518386841 17.31979370117188 C 3.60760760307312 17.36136436462402 3.642897605895996 17.39657402038574 3.686187505722046 17.39657402038574 M 3.84023642539978 11.38805484771729 C 4.783560276031494 11.38805484771729 5.600644111633301 11.08838939666748 5.899477481842041 10.96355438232422 C 5.963537693023682 10.93619441986084 5.984647750854492 10.8603048324585 5.942437648773193 10.80813407897949 C 5.683597564697266 10.48381423950195 4.793397426605225 9.476544380187988 3.49365758895874 9.159153938293457 C 3.178160429000854 9.081845283508301 2.862886905670166 9.051043510437012 2.560405015945435 9.051043510437012 C 1.616755723953247 9.051043510437012 0.7991719245910645 9.351134300231934 0.5005375742912292 9.475454330444336 C 0.4361076056957245 9.501354217529297 0.4149976074695587 9.578694343566895 0.4568375945091248 9.630504608154297 C 0.7164176106452942 9.955194473266602 1.606247544288635 10.96136474609375 2.905987501144409 11.27984428405762 C 3.221647500991821 11.35719394683838 3.537417650222778 11.3880443572998 3.840047597885132 11.38805484771729 C 3.840162754058838 11.38805484771729 3.840121269226074 11.38805484771729 3.84023642539978 11.38805484771729 M 18.70057678222656 11.388014793396 C 19.00303840637207 11.38800430297852 19.31865692138672 11.35726451873779 19.63419723510742 11.28021430969238 C 21.19203758239746 10.8975248336792 22.16221809387207 9.527254104614258 22.16221809387207 9.527254104614258 C 22.16221809387207 9.527254104614258 21.17198371887207 9.05023193359375 19.98038291931152 9.05023193359375 C 19.67744445800781 9.05023193359375 19.36142349243164 9.081074714660645 19.0454273223877 9.158424377441406 C 17.74530792236328 9.477273941040039 16.85473823547363 10.4827241897583 16.59479713439941 10.80740451812744 C 16.55368804931641 10.86067485809326 16.57479667663574 10.93692398071289 16.63811683654785 10.9639139175415 C 16.93768692016602 11.0882740020752 17.75574684143066 11.38806438446045 18.70057678222656 11.388014793396 M 14.08945751190186 8.645124435424805 C 14.09357738494873 8.645124435424805 14.09774780273438 8.64488410949707 14.10194778442383 8.644393920898438 C 14.56222724914551 8.590774536132813 16.23967742919922 8.326643943786621 17.37352752685547 7.222694396972656 C 18.50737762451172 6.120214462280273 18.72992706298828 4.53434419631958 18.76991844177246 4.10021448135376 C 18.77579879760742 4.043341636657715 18.72877502441406 3.996972322463989 18.67098426818848 3.996972322463989 C 18.66686058044434 3.996972322463989 18.66267395019531 3.997209072113037 18.65845680236816 3.997694492340088 C 18.19743728637695 4.051324367523193 16.51998710632324 4.315454483032227 15.38613796234131 5.419034481048584 C 14.25228786468506 6.522614479064941 14.02973747253418 8.107754707336426 13.98974800109863 8.542613983154297 C 13.98386764526367 8.598793983459473 14.03185749053955 8.645124435424805 14.08945751190186 8.645124435424805 M 8.854477882385254 8.645124435424805 C 8.912637710571289 8.645124435424805 8.960307121276855 8.598793983459473 8.954437255859375 8.542613983154297 C 8.913697242736816 8.107754707336426 8.691147804260254 6.522614479064941 7.558407783508301 5.419034481048584 C 6.424557685852051 4.315454483032227 4.74710750579834 4.051324367523193 4.286087512969971 3.997694492340088 C 4.281867504119873 3.997208595275879 4.277687549591064 3.996972322463989 4.273558139801025 3.996972322463989 C 4.215733528137207 3.996972322463989 4.168337345123291 4.04334545135498 4.17351770401001 4.10021448135376 C 4.213887691497803 4.53434419631958 4.436797618865967 6.120214462280273 5.570657730102539 7.222694396972656 C 6.703397750854492 8.326643943786621 8.380837440490723 8.590774536132813 8.841867446899414 8.644393920898438 C 8.846117973327637 8.64488410949707 8.85031795501709 8.645124435424805 8.854477882385254 8.645124435424805 M 11.47824764251709 6.321004390716553 C 11.51226806640625 6.321004390716553 11.54634761810303 6.307134628295898 11.57021713256836 6.279274463653564 C 11.85571765899658 5.946564197540283 12.6918478012085 4.860494613647461 12.69962787628174 3.565024375915527 C 12.71073722839355 2.269914388656616 11.89052772521973 1.172904372215271 11.61057758331299 0.8369044065475464 C 11.58679294586182 0.8083100318908691 11.55184555053711 0.7938989400863647 11.51687145233154 0.7938989400863647 C 11.48268985748291 0.7938989400863647 11.44848155975342 0.8076767325401306 11.42468738555908 0.8354443907737732 C 11.14030742645264 1.167804360389709 10.30416774749756 2.254224300384521 10.29416751861572 3.550064325332642 C 10.28528785705566 4.844804286956787 11.1043872833252 5.941814422607422 11.38543796539307 6.278184413909912 C 11.40914726257324 6.306684494018555 11.4436674118042 6.321004390716553 11.47824764251709 6.321004390716553 M 14.57448768615723 25.99390411376953 L 14.57437801361084 25.99390411376953 C 12.65784740447998 25.99387359619141 10.70550727844238 25.50831413269043 9.405187606811523 25.10097503662109 C 8.698437690734863 24.87977409362793 8.01813793182373 24.76757431030273 7.383457660675049 24.76757431030273 C 6.262137413024902 24.76757431030273 5.540677547454834 25.11375427246094 5.210417747497559 25.32010459899902 C 4.996127605438232 25.45368385314941 4.751197814941406 25.52394485473633 4.501047611236572 25.52394485473633 C 4.053897380828857 25.52399444580078 3.638547658920288 25.30242347717285 3.390147686004639 24.93124389648438 C 3.145087480545044 24.56505393981934 3.099257707595825 24.10295486450195 3.267547607421875 23.69511413574219 C 3.953490972518921 22.02940559387207 5.794097900390625 21.08104705810547 8.469217300415039 21.00626945495605 L 9.164212226867676 13.72698307037354 C 9.028582572937012 13.20974063873291 8.513388633728027 12.50986671447754 7.758647441864014 11.82467460632324 C 7.350067615509033 11.45229434967041 7.214917659759521 10.88289451599121 7.412617683410645 10.3724946975708 C 7.520902633666992 10.09293460845947 7.71996545791626 9.863664627075195 7.967784404754639 9.713493347167969 C 7.064872741699219 9.51902961730957 5.754696846008301 9.077686309814453 4.733117580413818 8.082074165344238 C 3.310627698898315 6.698944568634033 3.030587673187256 4.769654273986816 2.978667497634888 4.211324214935303 C 2.945627689361572 3.84857439994812 3.066897630691528 3.488374471664429 3.311187505722046 3.220824480056763 C 3.557127714157104 2.951464414596558 3.907897710800171 2.796974420547485 4.273557662963867 2.796974420547485 C 4.323827743530273 2.796974420547485 4.374617576599121 2.799914360046387 4.424497604370117 2.805704355239868 C 5.165487766265869 2.891904354095459 7.035207748413086 3.235244274139404 8.395377159118652 4.559104442596436 C 9.815857887268066 5.943014621734619 10.09689712524414 7.872324466705322 10.14920806884766 8.430684089660645 C 10.18301868438721 8.78886604309082 10.0645751953125 9.146871566772461 9.82316780090332 9.414804458618164 C 9.699691772460938 9.551861763000488 9.549418449401855 9.659622192382813 9.383742332458496 9.733028411865234 C 9.613217353820801 9.869368553161621 9.846842765808105 10.0263090133667 10.07478713989258 10.1911506652832 L 10.27770805358887 8.603864669799805 C 10.3441801071167 8.070855140686035 10.72842597961426 7.642029762268066 11.22786235809326 7.497312068939209 C 10.93036079406738 7.44034481048584 10.66009426116943 7.282637119293213 10.4629373550415 7.045644283294678 C 10.04872798919678 6.549904346466064 9.082737922668457 5.211994171142578 9.094197273254395 3.541834354400635 C 9.107048034667969 1.876404404640198 10.09061717987061 0.5488144159317017 10.51289749145508 0.05528439208865166 C 10.76426792144775 -0.2381356060504913 11.13002777099609 -0.4061056077480316 11.51686763763428 -0.4061056077480316 C 11.9113073348999 -0.4061056077480316 12.28173732757568 -0.2327356040477753 12.53315734863281 0.06954438984394073 C 12.948317527771 0.5678144097328186 13.91387748718262 1.908504366874695 13.89958763122559 3.575314283370972 C 13.88958740234375 5.240274429321289 12.90411758422852 6.567514419555664 12.48089790344238 7.060724258422852 C 12.31274509429932 7.256979465484619 12.09262275695801 7.397212028503418 11.84909534454346 7.468164920806885 C 12.27865028381348 7.549967288970947 12.64060974121094 7.838865756988525 12.81716918945313 8.231794357299805 C 12.91137599945068 7.50310754776001 13.2634449005127 5.810501575469971 14.54916763305664 4.559104442596436 C 15.90933799743652 3.235244274139404 17.7790584564209 2.891904354095459 18.51979827880859 2.805734395980835 C 18.56992721557617 2.799914360046387 18.62071800231934 2.796974420547485 18.67098808288574 2.796974420547485 C 19.03944778442383 2.796974420547485 19.39190673828125 2.953454494476318 19.63798713684082 3.226284503936768 C 19.88037872314453 3.49503493309021 19.99908828735352 3.854779005050659 19.96445846557617 4.214601993560791 C 19.91200256347656 4.778409004211426 19.63126564025879 6.701165676116943 18.21006774902344 8.083044052124023 C 18.16161727905273 8.130216598510742 18.11254692077637 8.176118850708008 18.06287384033203 8.220833778381348 C 18.28248977661133 8.130598068237305 18.51490592956543 8.052974700927734 18.75959777832031 7.992964267730713 C 19.14668846130371 7.898214340209961 19.55723762512207 7.850234508514404 19.98038673400879 7.850234508514404 C 21.40482711791992 7.850234508514404 22.55639839172363 8.385164260864258 22.68300819396973 8.446154594421387 L 23.96181678771973 9.06219482421875 L 23.14158821105957 10.22067451477051 C 23.01582717895508 10.3983039855957 21.85693740844727 11.96986484527588 19.92046737670898 12.44556427001953 C 19.53289794921875 12.54020404815674 19.12302780151367 12.58800411224365 18.70061683654785 12.58801460266113 L 18.70063781738281 12.58801460266113 C 18.70061683654785 12.58801460266113 18.70061683654785 12.58801460266113 18.70061683654785 12.58801460266113 C 17.58699798583984 12.58807468414307 16.64213752746582 12.26487445831299 16.17802810668945 12.07221412658691 L 16.17279815673828 12.07003402709961 L 16.16757774353027 12.06781482696533 C 15.84967041015625 11.9323091506958 15.60436248779297 11.68365287780762 15.47444438934326 11.37141513824463 C 15.45130252838135 11.61126232147217 15.36137390136719 11.84492492675781 15.20731735229492 12.04631900787354 C 14.63488864898682 12.79584121704102 14.34947490692139 13.49557781219482 14.23935413360596 13.81031608581543 L 14.78333759307861 22.09208297729492 C 15.12518692016602 22.16549301147461 15.48234367370605 22.20250511169434 15.85128784179688 22.20250511169434 C 16.80555725097656 22.20250511169434 17.60203742980957 21.95964431762695 17.99187850952148 21.81488418579102 L 17.99490737915039 21.81375503540039 L 17.99793815612793 21.81265449523926 C 18.14621734619141 21.75849533081055 18.30113792419434 21.73103523254395 18.45838737487793 21.73103523254395 C 18.94222831726074 21.73103523254395 19.3891773223877 21.99304389953613 19.62481689453125 22.41482353210449 C 19.85561943054199 22.82794761657715 19.84624290466309 23.33453941345215 19.60084533691406 23.7391242980957 L 19.6008472442627 23.7391242980957 C 18.97789764404297 24.76774406433105 17.60019683837891 25.99390411376953 14.57448768615723 25.99390411376953 Z M 14.14463806152344 9.920524597167969 C 14.65077781677246 9.920524597167969 15.12189769744873 10.21369457244873 15.34488773345947 10.66740417480469 C 15.35707473754883 10.69220161437988 15.36843013763428 10.71722984313965 15.37895965576172 10.74245929718018 C 15.40203857421875 10.50270366668701 15.49230766296387 10.27185535430908 15.64479732513428 10.07426452636719 L 15.65133762359619 10.0657844543457 L 15.65802764892578 10.05742454528809 C 15.81186580657959 9.865273475646973 16.07331848144531 9.566070556640625 16.43317794799805 9.249588012695313 C 15.53228855133057 9.640749931335449 14.68420219421387 9.784679412841797 14.240797996521 9.836334228515625 C 14.19087791442871 9.842154502868652 14.13988780975342 9.845124244689941 14.08945751190186 9.845124244689941 C 13.72038745880127 9.845124244689941 13.36739730834961 9.688234329223633 13.12098789215088 9.414694786071777 C 13.07917785644531 9.368280410766602 13.04105281829834 9.319161415100098 13.00677299499512 9.267813682556152 L 13.14316272735596 10.33574104309082 L 13.34773826599121 10.18483638763428 C 13.58080196380615 10.01190662384033 13.85626697540283 9.920524597167969 14.14463806152344 9.920524597167969 Z M 19.4422779083252 18.78082466125488 C 19.3947582244873 18.78082466125488 19.34670829772949 18.77815437316895 19.29947853088379 18.77289390563965 C 18.80689811706543 18.71750450134277 17.10990715026855 18.4466552734375 15.90471744537354 17.2813835144043 C 14.68386459350586 16.10004997253418 14.43651676177979 14.45746326446533 14.38946723937988 13.9746036529541 C 14.35365390777588 13.61741256713867 14.47104835510254 13.25979518890381 14.71185779571533 12.99287414550781 C 14.95476722717285 12.72361469268799 15.30224800109863 12.56918430328369 15.665207862854 12.56918430328369 C 15.71315765380859 12.56918430328369 15.76169776916504 12.57191467285156 15.80947780609131 12.57730484008789 C 16.44523811340332 12.65116405487061 18.04025840759277 12.94341468811035 19.20314788818359 14.06912422180176 C 20.39067840576172 15.21868419647217 20.65896797180176 16.76642417907715 20.71918678283691 17.37849426269531 L 20.71966743469238 17.38330459594727 L 20.7200984954834 17.38811492919922 C 20.75218772888184 17.74361419677734 20.63224792480469 18.09891510009766 20.39101791381836 18.3629035949707 C 20.14831733703613 18.62849426269531 19.80251693725586 18.78082466125488 19.4422779083252 18.78082466125488 Z M 3.686187505722046 18.5965747833252 C 3.327937602996826 18.5965747833252 2.984147548675537 18.44502449035645 2.74296760559082 18.18078422546387 C 2.503077507019043 17.9179744720459 2.384047508239746 17.56434440612793 2.416387557983398 17.2105541229248 L 2.416777610778809 17.20627403259277 L 2.417207479476929 17.20199394226074 C 2.472977638244629 16.63662528991699 2.721407651901245 15.20662403106689 3.82104754447937 14.14131450653076 C 4.896557807922363 13.10123443603516 6.366937637329102 12.83034420013428 6.949227809906006 12.76212406158447 C 6.998997688293457 12.75632476806641 7.048807621002197 12.75343418121338 7.098057746887207 12.75343418121338 C 7.455637454986572 12.75343418121338 7.798927783966064 12.90465450286865 8.039887428283691 13.16832447052002 C 8.2799072265625 13.43095397949219 8.399257659912109 13.78464412689209 8.367337226867676 14.13870429992676 L 8.367007255554199 14.14236450195313 L 8.366657257080078 14.14601421356201 C 8.312237739562988 14.71102428436279 8.066457748413086 16.14055442810059 6.962527751922607 17.20906448364258 C 5.878687381744385 18.2572135925293 4.410897731781006 18.52288436889648 3.830127716064453 18.58846473693848 C 3.781567573547363 18.59389495849609 3.733577489852905 18.5965747833252 3.686187505722046 18.5965747833252 Z M 3.840237617492676 12.58805465698242 L 3.840047597885132 12.58805465698242 C 3.417067527770996 12.58804416656494 3.006727695465088 12.54003429412842 2.620387554168701 12.44536399841309 C 0.9966745972633362 12.04749774932861 -0.08575911074876785 10.8728141784668 -0.4780791401863098 10.38278865814209 C -0.7343753576278687 10.06435394287109 -0.825896143913269 9.638326644897461 -0.7229223847389221 9.242684364318848 C -0.620318591594696 8.848464012145996 -0.334458202123642 8.521561622619629 0.04284242540597916 8.366161346435547 C 0.4186109900474548 8.210062026977539 1.408554315567017 7.851044178009033 2.560407638549805 7.851044178009033 C 2.983047485351563 7.851044178009033 3.393127679824829 7.899014472961426 3.779257535934448 7.993634223937988 C 5.407207489013672 8.39117431640625 6.490287780761719 9.570854187011719 6.880347728729248 10.05958461761475 C 7.13099193572998 10.37337398529053 7.222855567932129 10.79225921630859 7.126097679138184 11.18184471130371 C 7.028197765350342 11.57599449157715 6.745847702026367 11.90693473815918 6.370807647705078 12.06711483001709 L 6.366417407989502 12.06899452209473 L 6.362017631530762 12.07082462310791 C 5.98972749710083 12.22634410858154 4.998757362365723 12.58805465698242 3.840237617492676 12.58805465698242 Z" stroke="none" fill="#4e4e4e"/>
    </g>
  </g>
</svg>
