<svg id="notifications" xmlns="http://www.w3.org/2000/svg" width="21.839" height="26.109" viewBox="0 0 21.839 26.109">
  <g id="notifications-2" data-name="notifications" transform="translate(0 3)">
    <path id="Path_13" data-name="Path 13" d="M-1006.271-3.933a6.212,6.212,0,0,1-2.473-4.9v-2.88a6.913,6.913,0,0,0-5.151-6.491V-19.3a2.172,2.172,0,0,0-2.253-2.074A2.172,2.172,0,0,0-1018.4-19.3v1.093a6.913,6.913,0,0,0-5.151,6.491v2.88a6.225,6.225,0,0,1-2.482,4.911,1.549,1.549,0,0,0-.608,1.216,1.675,1.675,0,0,0,1.738,1.6h5.025a3.735,3.735,0,0,0,3.731,2.844,3.734,3.734,0,0,0,3.731-2.844h5.025a1.675,1.675,0,0,0,1.738-1.6A1.562,1.562,0,0,0-1006.271-3.933Zm-7.6,2.823a2.372,2.372,0,0,1-2.275,1.541,2.372,2.372,0,0,1-2.275-1.541Zm-11.031-1.3a.31.31,0,0,1-.322-.3.29.29,0,0,1,.116-.227,7.476,7.476,0,0,0,2.974-5.9v-2.88a5.63,5.63,0,0,1,4.534-5.346.756.756,0,0,0,.142-.031,6.482,6.482,0,0,1,1.312-.134,6.481,6.481,0,0,1,1.312.134.758.758,0,0,0,.142.031,5.63,5.63,0,0,1,4.534,5.346v2.88a7.482,7.482,0,0,0,2.978,5.9.287.287,0,0,1,.113.225.31.31,0,0,1-.322.3Zm9.593-16.073a8.09,8.09,0,0,0-.837-.044,8.089,8.089,0,0,0-.837.044V-19.3a.807.807,0,0,1,.837-.77.807.807,0,0,1,.837.77Z" transform="translate(1026.642 21.375)" fill="#fff"/>
  </g>
  <circle id="Ellipse_8" data-name="Ellipse 8" cx="7.5" cy="7.5" r="7.5" transform="translate(6.839)" fill="#f30000"/>
</svg>
