<svg id="Purchase_Orders-small-green" data-name="Purchase Orders-small-green" xmlns="http://www.w3.org/2000/svg" width="52.898" height="64" viewBox="0 0 52.898 64">
  <g id="Path_390" data-name="Path 390" transform="translate(0 13)" fill="none">
    <path d="M14.211,0H38.687A10.787,10.787,0,0,1,49.74,10.5l3.158,30A10.787,10.787,0,0,1,41.845,51H11.053A10.787,10.787,0,0,1,0,40.5l3.158-30A10.787,10.787,0,0,1,14.211,0Z" stroke="none"/>
    <path d="M 14.21142196655273 2.499996185302734 C 9.495101928710938 2.499996185302734 5.658092498779297 6.088787078857422 5.658092498779297 10.49999618530273 L 5.658092498779297 10.63121795654297 L 5.644351959228516 10.76172637939453 L 2.500980377197266 40.62191009521484 C 2.570808410644531 44.97721099853516 6.380470275878906 48.49998474121094 11.05332183837891 48.49998474121094 L 41.84473419189453 48.49998474121094 C 46.51758575439453 48.49998474121094 50.3272590637207 44.97721099853516 50.39708709716797 40.62191009521484 L 47.25371551513672 10.76172637939453 L 47.23997497558594 10.63121795654297 L 47.23997497558594 10.49999618530273 C 47.23997497558594 6.088787078857422 43.40296173095703 2.499996185302734 38.6866455078125 2.499996185302734 L 14.21142196655273 2.499996185302734 M 14.21142196655273 -3.814697265625e-06 L 38.6866455078125 -3.814697265625e-06 C 44.79122161865234 -3.814697265625e-06 49.73997497558594 4.701007843017578 49.73997497558594 10.49999618530273 L 52.89806365966797 40.49999618530273 C 52.89806365966797 46.29898452758789 47.94932556152344 50.99998474121094 41.84473419189453 50.99998474121094 L 11.05332183837891 50.99998474121094 C 4.948741912841797 50.99998474121094 3.814697265625e-06 46.29898452758789 3.814697265625e-06 40.49999618530273 L 3.158092498779297 10.49999618530273 C 3.158092498779297 4.701007843017578 8.106834411621094 -3.814697265625e-06 14.21142196655273 -3.814697265625e-06 Z" stroke="none" fill="#629c44"/>
  </g>
  <g id="Subtraction_1" data-name="Subtraction 1" transform="translate(9.185)" fill="none">
    <path d="M0,16.139H0a17,17,0,0,1,33.952-.1c-.317-.022-.644-.033-.974-.033h-31A14.173,14.173,0,0,0,0,16.139Z" stroke="none"/>
    <path d="M 31.05460166931152 13.50020027160645 C 29.4853343963623 7.154741764068604 23.74710845947266 2.500000476837158 16.97863006591797 2.500000476837158 C 13.23350048065186 2.500000476837158 9.679320335388184 3.92322039604187 6.97081995010376 6.507490634918213 C 4.954590320587158 8.431241035461426 3.557924270629883 10.85090255737305 2.902783632278442 13.50020027160645 L 31.05460166931152 13.50020027160645 M 7.81249980263965e-08 16.13894081115723 L 6.00781240791548e-05 16.13772964477539 C 0.2179000824689865 11.7804708480835 2.080590009689331 7.718020439147949 5.245019912719727 4.69873046875 C 8.420700073242188 1.668710350990295 12.58777046203613 4.055786178014387e-07 16.97863006591797 4.055786178014387e-07 C 25.99234962463379 4.055786178014387e-07 33.44778823852539 7.04278039932251 33.95166015625 16.03355979919434 C 33.63449096679688 16.01177978515625 33.3072395324707 16.00020027160645 32.97793197631836 16.00020027160645 L 1.978330135345459 16.00020027160645 C 1.316830039024353 16.00020027160645 0.6516301035881042 16.04681968688965 0.001200078171677887 16.13877105712891 L 7.81249980263965e-08 16.13894081115723 Z" stroke="none" fill="#629c44"/>
  </g>
  <g id="Group_561" data-name="Group 561" transform="translate(9.303 27.556)">
    <g id="Group_188" data-name="Group 188">
      <path id="Path_175" data-name="Path 175" d="M109.2,158.06a.272.272,0,0,0,.18-.036c.036,0,.072,0,.072-.036a.132.132,0,0,0,.108-.037c.036,0,.071-.036.108-.036s.036-.036.071-.036a1.11,1.11,0,0,0,.288-.288c0-.036.036-.036.036-.072s.037-.071.037-.108.036-.071.036-.108.036-.036.036-.071a1.5,1.5,0,0,1,.037-.18v-4.459A12.778,12.778,0,0,0,97.329,139.9H92.8a1,1,0,0,0-1.007.97v4.46a12.779,12.779,0,0,0,12.875,12.695h4.53ZM93.769,145.366v-3.488h3.524a10.805,10.805,0,0,1,10.862,10.753v2.122L99.7,146.409a.992.992,0,0,0-1.4,1.4l8.451,8.343h-2.122A10.883,10.883,0,0,1,93.769,145.366Z" transform="translate(-91.791 -139.9)" fill="#629c44" stroke="#629c44" stroke-miterlimit="10" stroke-width="0.4"/>
      <path id="Path_176" data-name="Path 176" d="M118.642,144.7h-3.251a9,9,0,0,0-9.24,8.72v3.064a.183.183,0,0,0,.025.123c0,.025,0,.05.026.05a.087.087,0,0,0,.026.074c0,.025.026.05.026.075s.025.025.025.049a.768.768,0,0,0,.207.2c.025,0,.025.025.051.025s.052.025.077.025.052.025.078.025a.094.094,0,0,1,.051.024,1.146,1.146,0,0,1,.129.025h3.252a9,9,0,0,0,9.24-8.72v-3.062A.691.691,0,0,0,118.642,144.7Zm-.7,3.755a7.614,7.614,0,0,1-7.794,7.387h-1.524l6.066-5.731a.651.651,0,0,0,0-.963.722.722,0,0,0-1.007,0l-6.066,5.731v-1.458a7.614,7.614,0,0,1,7.794-7.387h2.53v2.421Z" transform="translate(-85.568 -139.01)" fill="#629c44" stroke="#629c44" stroke-miterlimit="10" stroke-width="0.4"/>
    </g>
  </g>
</svg>
