<svg id="Purchase_Orders-big-grey" data-name="Purchase Orders-big-grey" xmlns="http://www.w3.org/2000/svg" width="69.429" height="84" viewBox="0 0 69.429 84">
  <g id="Path_390" data-name="Path 390" transform="translate(0 13)" fill="none">
    <path d="M18.652,0H50.776A14.563,14.563,0,0,1,65.284,14.618l4.145,41.765A14.563,14.563,0,0,1,54.921,71H14.507A14.563,14.563,0,0,1,0,56.382L4.145,14.618A14.563,14.563,0,0,1,18.652,0Z" stroke="none"/>
    <path d="M 18.65249252319336 3.999992370605469 C 12.858642578125 3.999992370605469 8.144992828369141 8.763057708740234 8.144992828369141 14.61764526367188 L 8.144992828369141 14.81565856933594 L 8.125442504882813 15.0126953125 L 4.00152587890625 56.56497955322266 C 4.098495483398438 62.33551788330078 8.774112701416016 67 14.50749206542969 67 L 54.92121887207031 67 C 60.65459823608398 67 65.3302001953125 62.33551788330078 65.42716979980469 56.56497955322266 L 61.30326843261719 15.0126953125 L 61.28371810913086 14.81564712524414 L 61.28371810913086 14.61764526367188 C 61.28371810913086 8.763057708740234 56.570068359375 3.999992370605469 50.77621841430664 3.999992370605469 L 18.65249252319336 3.999992370605469 M 18.65249252319336 -7.62939453125e-06 L 50.77621841430664 -7.62939453125e-06 C 58.78848266601563 -7.62939453125e-06 65.28372192382813 6.544532775878906 65.28372192382813 14.61764526367188 L 69.42870330810547 56.38234710693359 C 69.42870330810547 64.4554443359375 62.93347930908203 71 54.92121887207031 71 L 14.50749206542969 71 C 6.495216369628906 71 -7.62939453125e-06 64.4554443359375 -7.62939453125e-06 56.38234710693359 L 4.144996643066406 14.61764526367188 C 4.144996643066406 6.544532775878906 10.64021682739258 -7.62939453125e-06 18.65249252319336 -7.62939453125e-06 Z" stroke="none" fill="#4e4e4e"/>
  </g>
  <g id="Subtraction_1" data-name="Subtraction 1" transform="translate(17.199)" fill="none">
    <path d="M0,16.139H0a17,17,0,0,1,33.952-.1c-.317-.022-.644-.033-.974-.033h-31A14.173,14.173,0,0,0,0,16.139Z" stroke="none"/>
    <path d="M 28.98470687866211 12.00020027160645 C 27.02069473266602 7.285642623901367 22.36329460144043 4.000000476837158 16.97863006591797 4.000000476837158 C 13.62092971801758 4.000000476837158 10.43449020385742 5.275930404663086 8.00629997253418 7.592750549316406 C 6.683196544647217 8.855165481567383 5.657719135284424 10.35547637939453 4.972649574279785 12.00020027160645 L 28.98470687866211 12.00020027160645 M 7.81249980263965e-08 16.13894081115723 L 6.00781240791548e-05 16.13772964477539 C 0.2179000824689865 11.7804708480835 2.080590009689331 7.718020439147949 5.245019912719727 4.69873046875 C 8.420700073242188 1.668710350990295 12.58777046203613 4.055786178014387e-07 16.97863006591797 4.055786178014387e-07 C 25.99234962463379 4.055786178014387e-07 33.44778823852539 7.04278039932251 33.95166015625 16.03355979919434 C 33.63449096679688 16.01177978515625 33.3072395324707 16.00020027160645 32.97793197631836 16.00020027160645 L 1.978330135345459 16.00020027160645 C 1.316830039024353 16.00020027160645 0.6516301035881042 16.04681968688965 0.001200078171677887 16.13877105712891 L 7.81249980263965e-08 16.13894081115723 Z" stroke="none" fill="#4e4e4e"/>
  </g>
  <g id="Group_561" data-name="Group 561" transform="translate(17.354 36.578)">
    <g id="Group_188" data-name="Group 188" transform="translate(0 3)">
      <path id="Path_175" data-name="Path 175" d="M109.2,158.06a.272.272,0,0,0,.18-.036c.036,0,.072,0,.072-.036a.132.132,0,0,0,.108-.037c.036,0,.071-.036.108-.036s.036-.036.071-.036a1.11,1.11,0,0,0,.288-.288c0-.036.036-.036.036-.072s.037-.071.037-.108.036-.071.036-.108.036-.036.036-.071a1.5,1.5,0,0,1,.037-.18v-4.459A12.778,12.778,0,0,0,97.329,139.9H92.8a1,1,0,0,0-1.007.97v4.46a12.779,12.779,0,0,0,12.875,12.695h4.53ZM93.769,145.366v-3.488h3.524a10.805,10.805,0,0,1,10.862,10.753v2.122L99.7,146.409a.992.992,0,0,0-1.4,1.4l8.451,8.343h-2.122A10.883,10.883,0,0,1,93.769,145.366Z" transform="translate(-91.791 -139.9)" fill="#4e4e4e" stroke="#4e4e4e" stroke-miterlimit="10" stroke-width="0.4"/>
      <path id="Path_176" data-name="Path 176" d="M118.642,144.7h-3.251a9,9,0,0,0-9.24,8.72v3.064a.183.183,0,0,0,.025.123c0,.025,0,.05.026.05a.087.087,0,0,0,.026.074c0,.025.026.05.026.075s.025.025.025.049a.768.768,0,0,0,.207.2c.025,0,.025.025.051.025s.052.025.077.025.052.025.078.025a.094.094,0,0,1,.051.024,1.146,1.146,0,0,1,.129.025h3.252a9,9,0,0,0,9.24-8.72v-3.062A.691.691,0,0,0,118.642,144.7Zm-.7,3.755a7.614,7.614,0,0,1-7.794,7.387h-1.524l6.066-5.731a.651.651,0,0,0,0-.963.722.722,0,0,0-1.007,0l-6.066,5.731v-1.458a7.614,7.614,0,0,1,7.794-7.387h2.53v2.421Z" transform="translate(-85.568 -139.01)" fill="#4e4e4e" stroke="#4e4e4e" stroke-miterlimit="10" stroke-width="0.4"/>
    </g>
  </g>
</svg>
