<svg xmlns="http://www.w3.org/2000/svg" width="59.939" height="84.666" viewBox="0 0 59.939 84.666">
  <g id="Reports-big-grey" transform="translate(2 2)">
    <g id="Reports-big-grey-2" data-name="Reports-big-grey">
      <g id="Group_567" data-name="Group 567">
        <path id="Path_396" data-name="Path 396" d="M-1962.784,83.021h-36.2a3.3,3.3,0,0,0-3.191,3.373v73.92a3.3,3.3,0,0,0,3.191,3.373h49.558a3.3,3.3,0,0,0,3.191-3.373l-.312-58.817Z" transform="translate(2002.17 -83.021)" fill="none" stroke="#4e4e4e" stroke-linecap="round" stroke-miterlimit="10" stroke-width="4"/>
        <line id="Line_10" data-name="Line 10" x2="34.364" transform="translate(10.851 33.472)" fill="none" stroke="#4e4e4e" stroke-linecap="round" stroke-miterlimit="10" stroke-width="2.5"/>
        <line id="Line_11" data-name="Line 11" x2="24" transform="translate(12.119 42.519)" fill="none" stroke="#4e4e4e" stroke-linecap="round" stroke-miterlimit="10" stroke-width="2.5"/>
        <path id="Path_397" data-name="Path 397" d="M-1965.138,83.021v14.13a3.6,3.6,0,0,0,3.467,3.717h12.824" transform="translate(2003.513 -83.021)" fill="none" stroke="#4e4e4e" stroke-linecap="round" stroke-miterlimit="10" stroke-width="4"/>
        <path id="Path_406" data-name="Path 406" d="M8.04,54.894,17.485,67.73,32.017,52.957,37.1,63.128l12.11-19.618" transform="translate(-1 3)" fill="none" stroke="#4e4e4e" stroke-linecap="round" stroke-linejoin="round" stroke-width="2.5"/>
      </g>
    </g>
    <circle id="Ellipse_19" data-name="Ellipse 19" cx="3.5" cy="3.5" r="3.5" transform="translate(5 56)" fill="#4e4e4e"/>
    <circle id="Ellipse_20" data-name="Ellipse 20" cx="3.5" cy="3.5" r="3.5" transform="translate(13 66)" fill="#4e4e4e"/>
    <circle id="Ellipse_21" data-name="Ellipse 21" cx="3.5" cy="3.5" r="3.5" transform="translate(27 53)" fill="#4e4e4e"/>
    <circle id="Ellipse_22" data-name="Ellipse 22" cx="3.5" cy="3.5" r="3.5" transform="translate(33 62)" fill="#4e4e4e"/>
    <circle id="Ellipse_23" data-name="Ellipse 23" cx="3.5" cy="3.5" r="3.5" transform="translate(45 43)" fill="#4e4e4e"/>
  </g>
</svg>
