<svg xmlns="http://www.w3.org/2000/svg" width="17.493" height="24.673" viewBox="0 0 17.493 24.673">
  <g id="Reports-small-grey" transform="translate(0.625 0.625)">
    <g id="Group_588" data-name="Group 588" transform="translate(4462 6691)">
      <circle id="Ellipse_19" data-name="Ellipse 19" cx="1" cy="1" r="1" transform="translate(-4461 -6675)" fill="#4e4e4e"/>
      <g id="Group_584" data-name="Group 584" transform="translate(-4462 -6691)">
        <path id="Path_396" data-name="Path 396" d="M-1990.733,83.021h-10.51a.957.957,0,0,0-.927.979v21.464a.957.957,0,0,0,.927.979h14.39a.957.957,0,0,0,.926-.979l-.091-17.079Z" transform="translate(2002.17 -83.021)" fill="none" stroke="#4e4e4e" stroke-linecap="round" stroke-miterlimit="10" stroke-width="1.25"/>
        <line id="Line_10" data-name="Line 10" x2="9.978" transform="translate(3.151 9.719)" fill="none" stroke="#4e4e4e" stroke-linecap="round" stroke-miterlimit="10" stroke-width="0.75"/>
        <line id="Line_11" data-name="Line 11" x2="6.969" transform="translate(3.519 12.347)" fill="none" stroke="#4e4e4e" stroke-linecap="round" stroke-miterlimit="10" stroke-width="0.75"/>
        <path id="Path_397" data-name="Path 397" d="M-1965.138,83.021v4.1a1.045,1.045,0,0,0,1.007,1.079h3.723" transform="translate(1976.281 -83.021)" fill="none" stroke="#4e4e4e" stroke-linecap="round" stroke-miterlimit="10" stroke-width="1.25"/>
        <path id="Path_406" data-name="Path 406" d="M8.04,46.816l2.9,3.727h0l4.068-4.431,2.069,3.268,2.973-6.449" transform="translate(-5.996 -30.005)" fill="none" stroke="#4e4e4e" stroke-linecap="round" stroke-linejoin="round" stroke-width="0.75"/>
        <circle id="Ellipse_25" data-name="Ellipse 25" cx="1" cy="1" r="1" transform="translate(4 19)" fill="#4e4e4e"/>
        <circle id="Ellipse_29" data-name="Ellipse 29" cx="1" cy="1" r="1" transform="translate(8 15)" fill="#4e4e4e"/>
        <circle id="Ellipse_27" data-name="Ellipse 27" cx="1" cy="1" r="1" transform="translate(10 18)" fill="#4e4e4e"/>
        <circle id="Ellipse_28" data-name="Ellipse 28" cx="1" cy="1" r="1" transform="translate(13 12)" fill="#4e4e4e"/>
      </g>
    </g>
  </g>
</svg>
