<svg xmlns="http://www.w3.org/2000/svg" width="43.378" height="61.448" viewBox="0 0 43.378 61.448">
  <g id="Component_99_1" data-name="Component 99 – 1" transform="translate(1.25 1.25)">
    <path id="Path_396" data-name="Path 396" d="M-1973.388,83.021h-26.45a2.408,2.408,0,0,0-2.332,2.465V139.5a2.408,2.408,0,0,0,2.332,2.465h36.215a2.408,2.408,0,0,0,2.332-2.465l-.228-42.982Z" transform="translate(2002.17 -83.021)" fill="none" stroke="#629c44" stroke-linecap="round" stroke-miterlimit="10" stroke-width="2.5"/>
    <line id="Line_10" data-name="Line 10" x2="25.112" transform="translate(7.93 24.46)" fill="none" stroke="#629c44" stroke-linecap="round" stroke-miterlimit="10" stroke-width="2.5"/>
    <line id="Line_11" data-name="Line 11" x2="17.538" transform="translate(8.856 31.072)" fill="none" stroke="#629c44" stroke-linecap="round" stroke-miterlimit="10" stroke-width="2.5"/>
    <path id="Path_397" data-name="Path 397" d="M-1965.138,83.021V93.347a2.63,2.63,0,0,0,2.533,2.716h9.371" transform="translate(1993.181 -83.021)" fill="none" stroke="#629c44" stroke-linecap="round" stroke-miterlimit="10" stroke-width="2.5"/>
    <path id="Path_406" data-name="Path 406" d="M8.04,51.829l6.9,9.38,10.619-10.8,3.717,7.433,8.85-14.336" transform="translate(-2.896 -9.522)" fill="none" stroke="#629c44" stroke-linecap="round" stroke-linejoin="round" stroke-width="1.75"/>
    <circle id="Ellipse_19" data-name="Ellipse 19" cx="2.5" cy="2.5" r="2.5" transform="translate(3 41)" fill="#629c44"/>
    <g id="Ellipse_20" data-name="Ellipse 20" transform="translate(10 49)" fill="#629c44" stroke="#629c44" stroke-width="1">
      <circle cx="2.5" cy="2.5" r="2.5" stroke="none"/>
      <circle cx="2.5" cy="2.5" r="2" fill="none"/>
    </g>
    <g id="Ellipse_21" data-name="Ellipse 21" transform="translate(20 39)" fill="#629c44" stroke="#629c44" stroke-width="1">
      <circle cx="2.5" cy="2.5" r="2.5" stroke="none"/>
      <circle cx="2.5" cy="2.5" r="2" fill="none"/>
    </g>
    <g id="Ellipse_22" data-name="Ellipse 22" transform="translate(24 45)" fill="#629c44" stroke="#629c44" stroke-width="1">
      <circle cx="2.5" cy="2.5" r="2.5" stroke="none"/>
      <circle cx="2.5" cy="2.5" r="2" fill="none"/>
    </g>
    <g id="Ellipse_24" data-name="Ellipse 24" transform="translate(33 31)" fill="#629c44" stroke="#629c44" stroke-width="1">
      <circle cx="2.5" cy="2.5" r="2.5" stroke="none"/>
      <circle cx="2.5" cy="2.5" r="2" fill="none"/>
    </g>
  </g>
</svg>
