<svg xmlns="http://www.w3.org/2000/svg" width="47.563" height="63.968" viewBox="0 0 47.563 63.968">
  <g id="Staff_Directory-big-green" data-name="Staff Directory-big-green" transform="translate(1.25 1.25)">
    <g id="Group_565" data-name="Group 565">
      <path id="Rectangle_273" data-name="Rectangle 273" d="M3,0H42.063a3,3,0,0,1,3,3V50.52a3,3,0,0,1-3,3H10.851A10.851,10.851,0,0,1,0,42.669V3A3,3,0,0,1,3,0Z" transform="translate(0 7.948)" fill="none" stroke="#629c44" stroke-miterlimit="10" stroke-width="2.5"/>
      <path id="Path_395" data-name="Path 395" d="M-2133.4-127.132v-8.334a2.371,2.371,0,0,1,2.364-2.364h36.619a2.371,2.371,0,0,1,2.364,2.364v5.583" transform="translate(2133.404 137.83)" fill="none" stroke="#629c44" stroke-miterlimit="10" stroke-width="2.5"/>
      <path id="Rectangle_274" data-name="Rectangle 274" d="M10.11,0h4.628a10.11,10.11,0,0,1,10.11,10.11v0a2.364,2.364,0,0,1-2.364,2.364H2.364A2.364,2.364,0,0,1,0,10.11v0A10.11,10.11,0,0,1,10.11,0Z" transform="translate(9.657 34.708)" fill="none" stroke="#629c44" stroke-miterlimit="10" stroke-width="2.5"/>
      <circle id="Ellipse_14" data-name="Ellipse 14" cx="7.813" cy="7.813" r="7.813" transform="translate(14.267 19.082)" fill="none" stroke="#629c44" stroke-miterlimit="10" stroke-width="2.5"/>
    </g>
  </g>
</svg>
