<svg xmlns="http://www.w3.org/2000/svg" width="19.564" height="26.231" viewBox="0 0 19.564 26.231">
  <g id="Staff_Directory-small-white" data-name="Staff Directory-small-white" transform="translate(0.625 0.625)">
    <g id="Group_565" data-name="Group 565">
      <rect id="Rectangle_273" data-name="Rectangle 273" width="18.314" height="21.751" rx="1" transform="translate(0 3.23)" fill="none" stroke="#fff" stroke-miterlimit="10" stroke-width="1.25"/>
      <path id="Path_395" data-name="Path 395" d="M-2133.4-133.482v-3.387a.964.964,0,0,1,.961-.961h14.883a.964.964,0,0,1,.961.961v2.269" transform="translate(2133.404 137.83)" fill="none" stroke="#fff" stroke-miterlimit="10" stroke-width="1.25"/>
      <path id="Rectangle_274" data-name="Rectangle 274" d="M4.109,0H5.99A4.109,4.109,0,0,1,10.1,4.109v0a.961.961,0,0,1-.961.961H.961A.961.961,0,0,1,0,4.109v0A4.109,4.109,0,0,1,4.109,0Z" transform="translate(3.925 14.106)" fill="none" stroke="#fff" stroke-miterlimit="10" stroke-width="1.25"/>
      <ellipse id="Ellipse_14" data-name="Ellipse 14" cx="3.175" cy="3.175" rx="3.175" ry="3.175" transform="translate(5.798 7.755)" fill="none" stroke="#fff" stroke-miterlimit="10" stroke-width="1.25"/>
    </g>
  </g>
</svg>
