<svg xmlns="http://www.w3.org/2000/svg" width="63.138" height="84.667" viewBox="0 0 63.138 84.667">
  <g id="Staff_Directory-big-green" data-name="Staff Directory-big-green" transform="translate(2 2)">
    <g id="Group_565" data-name="Group 565">
      <path id="Rectangle_273" data-name="Rectangle 273" d="M3,0H56.138a3,3,0,0,1,3,3V67.236a3,3,0,0,1-3,3H10.851A10.851,10.851,0,0,1,0,59.385V3A3,3,0,0,1,3,0Z" transform="translate(0 10.43)" fill="none" stroke="#4e4e4e" stroke-miterlimit="10" stroke-width="4"/>
      <path id="Path_395" data-name="Path 395" d="M-2133.4-123.791v-10.936a3.112,3.112,0,0,1,3.1-3.1h48.056a3.112,3.112,0,0,1,3.1,3.1v7.327" transform="translate(2133.404 137.83)" fill="none" stroke="#4e4e4e" stroke-miterlimit="10" stroke-width="4"/>
      <path id="Rectangle_274" data-name="Rectangle 274" d="M12.83,0h6.95A12.83,12.83,0,0,1,32.61,12.83v.541a3,3,0,0,1-3,3H3a3,3,0,0,1-3-3V12.83A12.83,12.83,0,0,1,12.83,0Z" transform="translate(12.673 45.548)" fill="none" stroke="#4e4e4e" stroke-miterlimit="10" stroke-width="4"/>
      <circle id="Ellipse_14" data-name="Ellipse 14" cx="10.253" cy="10.253" r="10.253" transform="translate(18.722 25.042)" fill="none" stroke="#4e4e4e" stroke-miterlimit="10" stroke-width="4"/>
    </g>
  </g>
</svg>
