<svg xmlns="http://www.w3.org/2000/svg" width="83.597" height="82.001" viewBox="0 0 83.597 82.001">
  <g id="Tools_Settings-big-grey" data-name="Tools &amp; Settings-big-grey" transform="translate(2.15 2.001)">
    <path id="Union_15" data-name="Union 15" d="M98.906,316.763a9.873,9.873,0,0,1-2.185-11.021,1.671,1.671,0,0,1,.321-.5L117.8,282.892a1.545,1.545,0,0,1,2.242-.053l5.9,5.791a1.745,1.745,0,0,1,.492,1.481,19.9,19.9,0,0,0,.4,7.4,1.755,1.755,0,0,1-.391,1.622l-16.179,17.543a1.836,1.836,0,0,1-.191.176,10.444,10.444,0,0,1-5.931,2.189A7.279,7.279,0,0,1,98.906,316.763Zm56.915.941a1.678,1.678,0,0,1-.619-.407L138.16,299.364a1.783,1.783,0,0,1-.258-.355c-.565-1.032-2.965-5.795-1.733-10.2a1.775,1.775,0,0,0-.378-1.671l-12.672-13.829a1.564,1.564,0,0,0-1.154-.516h-7.231a1.573,1.573,0,0,1-1.278-.667l-11.484-15.956a1.747,1.747,0,0,1,.144-2.211l6.746-7.1a1.545,1.545,0,0,1,2.085-.165l15.66,12.117a1.721,1.721,0,0,1,.653,1.362v7.6a1.733,1.733,0,0,0,.492,1.214l13.087,13.282a1.545,1.545,0,0,0,1.68.365c1.854-.741,6.17-1.909,9.339,1.5L168.7,301.846a1.456,1.456,0,0,1,.131.158c.418.565,2.466,3.6.512,6.286-.047.06-.094.119-.147.175l-7.609,8.006a5.4,5.4,0,0,1-3.78,1.605A5.673,5.673,0,0,1,155.821,317.7Zm6.8-38.8a15.189,15.189,0,0,0-14.445-6.1,1.565,1.565,0,0,1-1.325-.481l-9.245-9.733a1.719,1.719,0,0,1-.472-1.155c-.074-3.752.78-21.358,23.333-20.351a1.569,1.569,0,0,1,.629.165c.669.34,1.877,1.271.154,3.085-1.877,1.973-7.351,7.736-9.155,9.631a1.742,1.742,0,0,0-.445,1.471l1.221,7.725a1.66,1.66,0,0,0,1.235,1.372l7.285,1.7a1.559,1.559,0,0,0,1.509-.484l9.352-10.337a1.492,1.492,0,0,1,1.071-.519c.629-.011,1.449.393,1.76,2.38.5,3.184,1.211,15.812-9.593,21.66-.171.095-.555.288-.96.47a1.547,1.547,0,0,1-1.907-.5Z" transform="translate(-95.91 -241.04)" fill="none" stroke="#4e4e4e" stroke-miterlimit="10" stroke-width="4"/>
  </g>
</svg>
